<svg width="28" height="27" viewBox="0 0 28 27" fill="none" xmlns="http://www.w3.org/2000/svg">
<circle cx="13.625" cy="13.5" r="13.5" fill="#141E1E"/>
<path fill-rule="evenodd" clip-rule="evenodd" d="M10.8918 6.75696C10.8444 6.74909 10.7963 6.74789 10.7486 6.75339C9.80013 6.86153 8.35658 7.40106 7.50398 7.88829C7.44767 7.92066 7.39726 7.96331 7.35511 8.01426C7.00099 8.44089 6.67958 9.13609 6.42808 9.79445C6.16869 10.4694 5.95442 11.1825 5.83374 11.6982C5.43451 13.3738 5.21685 15.3858 5.18753 17.2943C5.1866 17.3895 5.20831 17.4835 5.25068 17.5676C5.58902 18.2486 6.31869 18.8796 7.04949 19.3407C7.78818 19.8077 8.65093 20.1761 9.34564 20.2474C9.42888 20.2558 9.51282 20.2437 9.59089 20.2122C9.66896 20.1806 9.73904 20.1305 9.79562 20.0656C9.9693 19.8671 10.2648 19.4037 10.4881 19.0436C10.5896 18.8796 10.6854 18.7227 10.7599 18.5979C11.5065 18.7406 12.4425 18.8237 13.6267 18.8237C14.8086 18.8237 15.7446 18.7406 16.4912 18.5979C16.5657 18.7239 16.6604 18.8796 16.7619 19.0424C16.9852 19.4037 17.2807 19.8671 17.4555 20.0656C17.5121 20.1305 17.5821 20.1806 17.6602 20.2122C17.7383 20.2437 17.8222 20.2558 17.9055 20.2474C18.6002 20.1761 19.4618 19.8077 20.2005 19.3407C20.9313 18.8796 21.661 18.2486 22.0004 17.5676C22.0424 17.4834 22.0637 17.3894 22.0624 17.2943C22.0343 15.3858 21.8155 13.3727 21.4185 11.697C21.259 11.0499 21.0597 10.4144 20.8219 9.79445C20.5704 9.13609 20.249 8.4397 19.896 8.01426C19.8535 7.9632 19.8027 7.92054 19.746 7.88829C18.8945 7.40106 17.451 6.86153 16.5014 6.75339C16.4541 6.74799 16.4063 6.74919 16.3593 6.75696C16.1467 6.80006 15.9474 6.89714 15.7785 7.03979C15.4002 7.36069 15.0943 7.76621 14.883 8.22698C14.465 8.19243 14.0459 8.17539 13.6267 8.17588C13.1733 8.17588 12.7538 8.19371 12.367 8.22579C12.1555 7.76545 11.8497 7.36035 11.4715 7.03979C11.3029 6.89732 11.104 6.80024 10.8918 6.75696V6.75696ZM17.5942 18.2985C17.7529 18.556 17.9157 18.8108 18.0825 19.0626C18.5291 18.9557 19.0986 18.7061 19.6445 18.3615C20.2569 17.9752 20.7429 17.5296 20.9775 17.1529C20.9403 15.3632 20.7305 13.5046 20.3685 11.9739C20.2211 11.3778 20.0372 10.7923 19.8182 10.2211C19.5926 9.62927 19.3501 9.12777 19.1392 8.84018C18.4062 8.4397 17.2502 8.01664 16.4969 7.90136C16.4742 7.91585 16.4524 7.93172 16.4315 7.9489C16.338 8.02637 16.2526 8.114 16.1766 8.21034C16.1321 8.26613 16.0896 8.3236 16.0491 8.38266C16.3931 8.44921 16.6999 8.52883 16.9717 8.61677C17.7431 8.86633 18.2991 9.21096 18.5708 9.59243C18.657 9.71345 18.694 9.86558 18.6737 10.0153C18.6534 10.1651 18.5774 10.3002 18.4626 10.391C18.4057 10.436 18.341 10.4687 18.2721 10.4873C18.2033 10.5058 18.1316 10.51 18.0612 10.4994C17.9191 10.478 17.7909 10.398 17.7047 10.2769C17.6382 10.1842 17.3483 9.9323 16.6536 9.70651C15.9826 9.49023 14.9958 9.31672 13.6267 9.31672C12.2576 9.31672 11.2696 9.49022 10.5997 9.7077C9.90502 9.93349 9.61518 10.183 9.54864 10.2769C9.50599 10.3369 9.45255 10.3873 9.39138 10.4255C9.33021 10.4637 9.2625 10.4888 9.19213 10.4994C9.05 10.5208 8.90563 10.4818 8.79077 10.391C8.7339 10.3461 8.68599 10.2898 8.64977 10.2253C8.61355 10.1608 8.58973 10.0895 8.57968 10.0153C8.55938 9.86558 8.59637 9.71345 8.68251 9.59243C8.9543 9.20977 9.5103 8.86752 10.2817 8.61796C10.5524 8.52883 10.8591 8.45039 11.202 8.38385C11.1614 8.32415 11.1185 8.26626 11.0734 8.21034C10.9977 8.11406 10.9127 8.02643 10.8196 7.9489C10.7984 7.93169 10.7762 7.91582 10.7531 7.90136C10.0009 8.01664 8.84491 8.4397 8.11185 8.84018C7.89983 9.12896 7.65849 9.62927 7.4318 10.2211C7.19159 10.8509 6.99197 11.5128 6.88258 11.9739C6.51943 13.5046 6.30967 15.3632 6.27358 17.1529C6.50815 17.5308 6.9931 17.9752 7.60548 18.3627C8.15245 18.7073 8.72085 18.9568 9.16858 19.0626C9.33707 18.812 9.4999 18.5572 9.65691 18.2985C8.7716 17.9669 8.29681 17.5118 7.9878 17.0245C7.9484 16.9621 7.92106 16.8921 7.90734 16.8186C7.89361 16.745 7.89377 16.6693 7.9078 16.5958C7.92183 16.5223 7.94947 16.4525 7.98912 16.3902C8.02878 16.328 8.07968 16.2746 8.13892 16.2331C8.19816 16.1916 8.26458 16.1628 8.33439 16.1483C8.40419 16.1338 8.47602 16.134 8.54577 16.1488C8.61551 16.1636 8.68181 16.1927 8.74088 16.2345C8.79995 16.2763 8.85062 16.3299 8.89002 16.3923C9.18324 16.8582 9.95464 17.6829 13.6267 17.6829C17.2998 17.6829 18.0701 16.8582 18.3633 16.3923C18.4429 16.2662 18.5667 16.1786 18.7076 16.1488C18.8484 16.1189 18.9948 16.1492 19.1144 16.2331C19.2341 16.3169 19.3172 16.4474 19.3456 16.5958C19.3739 16.7443 19.3451 16.8985 19.2656 17.0245C18.9565 17.5118 18.4806 17.9681 17.5942 18.2985ZM9.76968 12.9199C10.0449 12.6085 10.4182 12.4326 10.8072 12.4303C11.1963 12.4326 11.5696 12.6085 11.8448 12.9199C12.1188 13.2324 12.2733 13.6543 12.2733 14.094C12.2733 14.5337 12.1188 14.9556 11.8448 15.2681C11.5696 15.5795 11.1963 15.7554 10.8072 15.7577C10.6117 15.7556 10.4186 15.711 10.2401 15.6267C10.0616 15.5425 9.90146 15.4204 9.76968 15.2681C9.49181 14.9474 9.33879 14.5282 9.34113 14.094C9.34113 13.6543 9.49563 13.2324 9.76968 12.9199V12.9199ZM16.4461 12.4303C16.057 12.4326 15.6837 12.6085 15.4086 12.9199C15.1345 13.2324 14.98 13.6543 14.98 14.094C14.98 14.5337 15.1345 14.9556 15.4086 15.2681C15.6837 15.5795 16.057 15.7554 16.4461 15.7577C16.8352 15.7554 17.2085 15.5795 17.4837 15.2681C17.7577 14.9556 17.9122 14.5337 17.9122 14.094C17.9122 13.6543 17.7577 13.2324 17.4837 12.9199C17.3519 12.7676 17.1918 12.6455 17.0133 12.5613C16.8348 12.477 16.6417 12.4324 16.4461 12.4303V12.4303Z" fill="#D5372A"/>
</svg>
