<svg width="28" height="27" viewBox="0 0 28 27" fill="none" xmlns="http://www.w3.org/2000/svg">
<circle cx="13.5625" cy="13.5" r="13.5" fill="#141E1E"/>
<path fill-rule="evenodd" clip-rule="evenodd" d="M19.1796 19.117C19.5181 18.7775 19.784 18.3693 19.9574 17.9218C20.1235 17.4918 20.2377 17.0017 20.271 16.2831C20.3042 15.5634 20.3125 15.3329 20.3125 13.5C20.3125 11.6671 20.3042 11.4366 20.271 10.7169C20.2377 9.99831 20.1235 9.50815 19.9574 9.07823C19.7878 8.62789 19.522 8.21998 19.1786 7.88296C18.8415 7.53954 18.4337 7.27375 17.9834 7.10412C17.5535 6.93796 17.0634 6.82373 16.3448 6.7905C15.6252 6.75727 15.3947 6.75 13.562 6.75C11.7292 6.75 11.4987 6.75727 10.7791 6.79154C10.0606 6.82269 9.57044 6.93692 9.14055 7.10412C8.69048 7.27414 8.28269 7.53988 7.94537 7.88296C7.60231 8.2203 7.3366 8.62812 7.16659 9.07823C7.00045 9.50815 6.88623 9.99831 6.853 10.7169C6.81977 11.4366 6.8125 11.6671 6.8125 13.5C6.8125 15.3329 6.81977 15.5634 6.85404 16.2831C6.88519 17.0017 6.99941 17.4918 7.16659 17.9218C7.33688 18.3725 7.60271 18.7795 7.94537 19.117C8.28285 19.4597 8.69093 19.7256 9.14055 19.8959C9.57044 20.062 10.0606 20.1763 10.7791 20.2095C11.4987 20.2417 11.7292 20.25 13.562 20.25C15.3947 20.25 15.6252 20.2417 16.3448 20.2085C17.0634 20.1773 17.5535 20.0631 17.9834 19.8959C18.4317 19.7224 18.8388 19.4571 19.1786 19.117H19.1796ZM7.85088 12.7056V14.2944C7.8488 15.147 7.8488 15.3682 7.87165 15.8521C7.89865 16.4607 7.93188 16.9072 8.03364 17.2437C8.13124 17.5677 8.24027 17.8979 8.59748 18.2946C8.95468 18.6923 9.29839 18.872 9.73658 19.0049C10.1758 19.1368 10.7272 19.1648 11.2059 19.1866C11.7479 19.2115 11.9639 19.2115 13.102 19.2115H14.3304C15.2047 19.2126 15.4248 19.2136 15.915 19.1908C16.5224 19.1627 16.9689 19.1295 17.3064 19.0288C17.6293 18.9312 17.9595 18.8211 18.3562 18.4649C18.7539 18.1077 18.9335 17.7629 19.0664 17.3247C19.1983 16.8864 19.2274 16.335 19.2492 15.8563C19.2731 15.3142 19.2731 15.0992 19.2731 13.9642V13.04C19.2731 11.9018 19.2731 11.6868 19.2492 11.1437C19.2274 10.665 19.1983 10.1136 19.0664 9.67535C18.9346 9.23608 18.7549 8.89235 18.3562 8.53512C17.9585 8.17788 17.6293 8.06885 17.3064 7.97123C16.9689 7.8705 16.5224 7.83623 15.915 7.80923C15.3871 7.78754 14.8587 7.78061 14.3304 7.78846H13.102C11.9639 7.78846 11.7479 7.78846 11.2059 7.81235C10.7272 7.83415 10.1758 7.86323 9.73658 7.99512C9.29839 8.12804 8.95468 8.30769 8.59748 8.70542C8.24027 9.10315 8.13021 9.43235 8.03364 9.75635C7.93188 10.0928 7.89865 10.5393 7.87165 11.1479C7.8488 11.6318 7.8488 11.853 7.85088 12.7056V12.7056ZM13.562 11.1635C12.9423 11.1635 12.3481 11.4096 11.9099 11.8478C11.4718 12.286 11.2256 12.8803 11.2256 13.5C11.2256 14.1197 11.4718 14.714 11.9099 15.1522C12.3481 15.5904 12.9423 15.8365 13.562 15.8365C14.1816 15.8365 14.7759 15.5904 15.214 15.1522C15.6522 14.714 15.8983 14.1197 15.8983 13.5C15.8983 12.8803 15.6522 12.286 15.214 11.8478C14.7759 11.4096 14.1816 11.1635 13.562 11.1635V11.1635ZM10.1872 13.5C10.1872 12.6049 10.5428 11.7464 11.1757 11.1135C11.8086 10.4806 12.6669 10.125 13.562 10.125C14.457 10.125 15.3154 10.4806 15.9483 11.1135C16.5812 11.7464 16.9367 12.6049 16.9367 13.5C16.9367 14.3951 16.5812 15.2535 15.9483 15.8865C15.3154 16.5194 14.457 16.875 13.562 16.875C12.6669 16.875 11.8086 16.5194 11.1757 15.8865C10.5428 15.2535 10.1872 14.3951 10.1872 13.5V13.5ZM17.1652 10.6754C17.3717 10.6754 17.5698 10.5933 17.7158 10.4473C17.8619 10.3012 17.944 10.1031 17.944 9.89654C17.944 9.68998 17.8619 9.49187 17.7158 9.34581C17.5698 9.19975 17.3717 9.11769 17.1652 9.11769C16.9586 9.11769 16.7605 9.19975 16.6145 9.34581C16.4684 9.49187 16.3864 9.68998 16.3864 9.89654C16.3864 10.1031 16.4684 10.3012 16.6145 10.4473C16.7605 10.5933 16.9586 10.6754 17.1652 10.6754Z" fill="#D5372A"/>
</svg>
