<svg width="27" height="27" viewBox="0 0 27 27" fill="none" xmlns="http://www.w3.org/2000/svg">
<circle cx="13.5" cy="13.5" r="13.5" fill="#141E1E"/>
<mask id="path-2-outside-1_12_502" maskUnits="userSpaceOnUse" x="5.75" y="7.4375" width="17" height="14" fill="black">
<rect fill="white" x="5.75" y="7.4375" width="17" height="14"/>
<path d="M21.9329 8.97616C21.9329 8.91733 21.916 8.85955 21.8839 8.80869C21.8518 8.75783 21.8058 8.7157 21.7503 8.68658C21.6949 8.65747 21.6321 8.6424 21.5683 8.64292C21.5045 8.64343 21.4419 8.65951 21.3871 8.68951C20.8783 8.96889 20.3257 9.17397 19.7488 9.29747C19.1185 8.74252 18.2794 8.43431 17.4079 8.43752C16.9345 8.43814 16.4664 8.52936 16.0333 8.70541C15.6001 8.88145 15.2113 9.13848 14.8914 9.46025C14.5716 9.78201 14.3276 10.1615 14.175 10.5747C14.0224 10.9879 13.9645 11.4258 14.0049 11.8607C11.8195 11.6465 9.81432 10.645 8.42586 9.07415C8.3888 9.03242 8.34131 8.99961 8.28747 8.97852C8.23362 8.95744 8.17504 8.94872 8.11674 8.95312C8.05844 8.95751 8.00216 8.97488 7.95275 9.00374C7.90333 9.0326 7.86225 9.07209 7.83303 9.11882C7.53309 9.60112 7.37531 10.1474 7.3754 10.7034C7.37451 11.3136 7.5659 11.9109 7.92629 12.4226L7.88291 12.4006C7.82627 12.375 7.76338 12.3634 7.70039 12.3669C7.63741 12.3704 7.57649 12.3889 7.5236 12.4206C7.4685 12.4537 7.42327 12.4989 7.39207 12.5523C7.36087 12.6056 7.3447 12.6653 7.34503 12.7259C7.34214 12.8046 7.3472 12.8839 7.36094 12.9613C7.39511 13.4014 7.52988 13.8299 7.7564 14.2185C7.98293 14.6072 8.29608 14.9473 8.67528 15.2165C8.62906 15.229 8.58603 15.2499 8.54871 15.2781C8.5114 15.3062 8.48055 15.3408 8.45799 15.3801C8.43542 15.4194 8.4216 15.4624 8.41732 15.5066C8.41304 15.5509 8.4184 15.5955 8.43308 15.6378C8.60009 16.1179 8.89022 16.5539 9.27885 16.9086C9.66749 17.2634 10.1432 17.5265 10.6656 17.6757C9.59885 18.2263 8.37027 18.4511 7.15634 18.3176C7.07499 18.3082 6.9926 18.3246 6.92269 18.3641C6.85278 18.4036 6.7995 18.4638 6.77159 18.5349C6.74368 18.606 6.74281 18.6837 6.7691 18.7553C6.7954 18.8269 6.84731 18.8881 6.91632 18.9289C8.36906 19.7914 10.0605 20.2499 11.7883 20.2495C13.7484 20.2695 15.6607 19.6916 17.2278 18.6059C18.7949 17.5202 19.929 15.9873 20.4537 14.2459C20.6988 13.4879 20.8239 12.7006 20.8253 11.9093C20.8253 11.8293 20.8253 11.746 20.8232 11.6613C21.1992 11.3088 21.4919 10.8883 21.6829 10.4262C21.8739 9.96421 21.959 9.47003 21.9329 8.97616ZM20.1804 11.3314C20.1211 11.3961 20.0908 11.4793 20.0959 11.564C20.1354 12.4067 20.022 13.2496 19.7604 14.0579C19.2938 15.6686 18.2547 17.0884 16.8093 18.0901C15.364 19.0918 13.596 19.6174 11.7883 19.5829C10.6851 19.5829 9.59302 19.3796 8.57623 18.9849C9.77122 18.8627 10.9048 18.433 11.8476 17.745C11.9063 17.7025 11.9492 17.6442 11.9706 17.5783C11.9919 17.5124 11.9906 17.442 11.9669 17.3768C11.9431 17.3116 11.8981 17.2547 11.8379 17.2141C11.7777 17.1734 11.7053 17.1509 11.6307 17.1497C11.168 17.1427 10.7151 17.0255 10.316 16.8094C9.91699 16.5933 9.58537 16.2857 9.35341 15.9164C9.66067 15.9171 9.96576 15.8784 10.26 15.8004C10.3376 15.7795 10.4053 15.7352 10.4523 15.6746C10.4993 15.614 10.523 15.5406 10.5195 15.4661C10.516 15.3917 10.4855 15.3205 10.433 15.2639C10.3805 15.2072 10.3089 15.1685 10.2296 15.1538C9.71214 15.0583 9.23674 14.824 8.86311 14.4803C8.48948 14.1366 8.23425 13.6989 8.12944 13.2219C8.43647 13.3137 8.75607 13.3649 9.07869 13.3739C9.15817 13.3793 9.23722 13.359 9.30216 13.3164C9.36711 13.2738 9.41387 13.2116 9.43438 13.1406C9.458 13.0716 9.45666 12.9975 9.43058 12.9293C9.4045 12.8611 9.35509 12.8026 9.28979 12.7626C8.92198 12.5369 8.62062 12.2305 8.4127 11.871C8.20477 11.5116 8.09677 11.1101 8.09835 10.7027C8.09835 10.4274 8.14679 10.1541 8.24295 9.89411C9.84577 11.49 12.0612 12.4456 14.417 12.5573C14.4733 12.5628 14.5302 12.5547 14.582 12.5338C14.6339 12.5129 14.6789 12.4798 14.7127 12.438C14.7486 12.3983 14.7739 12.3516 14.7869 12.3014C14.7998 12.2512 14.7999 12.1989 14.7872 12.1486C14.7395 11.9648 14.7152 11.7764 14.7149 11.5873C14.7156 10.929 14.9995 10.2979 15.5042 9.83224C16.0089 9.36662 16.6932 9.10454 17.4072 9.10349C17.7749 9.10252 18.1389 9.17187 18.4761 9.30714C18.8133 9.44242 19.1165 9.64069 19.3664 9.88944C19.4084 9.93072 19.4611 9.96145 19.5195 9.97872C19.578 9.99598 19.6402 9.99921 19.7004 9.9881C20.2134 9.89496 20.7123 9.74476 21.1861 9.54079C21.0629 10.2203 20.7115 10.8468 20.1804 11.3314Z"/>
</mask>
<path d="M21.9329 8.97616C21.9329 8.91733 21.916 8.85955 21.8839 8.80869C21.8518 8.75783 21.8058 8.7157 21.7503 8.68658C21.6949 8.65747 21.6321 8.6424 21.5683 8.64292C21.5045 8.64343 21.4419 8.65951 21.3871 8.68951C20.8783 8.96889 20.3257 9.17397 19.7488 9.29747C19.1185 8.74252 18.2794 8.43431 17.4079 8.43752C16.9345 8.43814 16.4664 8.52936 16.0333 8.70541C15.6001 8.88145 15.2113 9.13848 14.8914 9.46025C14.5716 9.78201 14.3276 10.1615 14.175 10.5747C14.0224 10.9879 13.9645 11.4258 14.0049 11.8607C11.8195 11.6465 9.81432 10.645 8.42586 9.07415C8.3888 9.03242 8.34131 8.99961 8.28747 8.97852C8.23362 8.95744 8.17504 8.94872 8.11674 8.95312C8.05844 8.95751 8.00216 8.97488 7.95275 9.00374C7.90333 9.0326 7.86225 9.07209 7.83303 9.11882C7.53309 9.60112 7.37531 10.1474 7.3754 10.7034C7.37451 11.3136 7.5659 11.9109 7.92629 12.4226L7.88291 12.4006C7.82627 12.375 7.76338 12.3634 7.70039 12.3669C7.63741 12.3704 7.57649 12.3889 7.5236 12.4206C7.4685 12.4537 7.42327 12.4989 7.39207 12.5523C7.36087 12.6056 7.3447 12.6653 7.34503 12.7259C7.34214 12.8046 7.3472 12.8839 7.36094 12.9613C7.39511 13.4014 7.52988 13.8299 7.7564 14.2185C7.98293 14.6072 8.29608 14.9473 8.67528 15.2165C8.62906 15.229 8.58603 15.2499 8.54871 15.2781C8.5114 15.3062 8.48055 15.3408 8.45799 15.3801C8.43542 15.4194 8.4216 15.4624 8.41732 15.5066C8.41304 15.5509 8.4184 15.5955 8.43308 15.6378C8.60009 16.1179 8.89022 16.5539 9.27885 16.9086C9.66749 17.2634 10.1432 17.5265 10.6656 17.6757C9.59885 18.2263 8.37027 18.4511 7.15634 18.3176C7.07499 18.3082 6.9926 18.3246 6.92269 18.3641C6.85278 18.4036 6.7995 18.4638 6.77159 18.5349C6.74368 18.606 6.74281 18.6837 6.7691 18.7553C6.7954 18.8269 6.84731 18.8881 6.91632 18.9289C8.36906 19.7914 10.0605 20.2499 11.7883 20.2495C13.7484 20.2695 15.6607 19.6916 17.2278 18.6059C18.7949 17.5202 19.929 15.9873 20.4537 14.2459C20.6988 13.4879 20.8239 12.7006 20.8253 11.9093C20.8253 11.8293 20.8253 11.746 20.8232 11.6613C21.1992 11.3088 21.4919 10.8883 21.6829 10.4262C21.8739 9.96421 21.959 9.47003 21.9329 8.97616ZM20.1804 11.3314C20.1211 11.3961 20.0908 11.4793 20.0959 11.564C20.1354 12.4067 20.022 13.2496 19.7604 14.0579C19.2938 15.6686 18.2547 17.0884 16.8093 18.0901C15.364 19.0918 13.596 19.6174 11.7883 19.5829C10.6851 19.5829 9.59302 19.3796 8.57623 18.9849C9.77122 18.8627 10.9048 18.433 11.8476 17.745C11.9063 17.7025 11.9492 17.6442 11.9706 17.5783C11.9919 17.5124 11.9906 17.442 11.9669 17.3768C11.9431 17.3116 11.8981 17.2547 11.8379 17.2141C11.7777 17.1734 11.7053 17.1509 11.6307 17.1497C11.168 17.1427 10.7151 17.0255 10.316 16.8094C9.91699 16.5933 9.58537 16.2857 9.35341 15.9164C9.66067 15.9171 9.96576 15.8784 10.26 15.8004C10.3376 15.7795 10.4053 15.7352 10.4523 15.6746C10.4993 15.614 10.523 15.5406 10.5195 15.4661C10.516 15.3917 10.4855 15.3205 10.433 15.2639C10.3805 15.2072 10.3089 15.1685 10.2296 15.1538C9.71214 15.0583 9.23674 14.824 8.86311 14.4803C8.48948 14.1366 8.23425 13.6989 8.12944 13.2219C8.43647 13.3137 8.75607 13.3649 9.07869 13.3739C9.15817 13.3793 9.23722 13.359 9.30216 13.3164C9.36711 13.2738 9.41387 13.2116 9.43438 13.1406C9.458 13.0716 9.45666 12.9975 9.43058 12.9293C9.4045 12.8611 9.35509 12.8026 9.28979 12.7626C8.92198 12.5369 8.62062 12.2305 8.4127 11.871C8.20477 11.5116 8.09677 11.1101 8.09835 10.7027C8.09835 10.4274 8.14679 10.1541 8.24295 9.89411C9.84577 11.49 12.0612 12.4456 14.417 12.5573C14.4733 12.5628 14.5302 12.5547 14.582 12.5338C14.6339 12.5129 14.6789 12.4798 14.7127 12.438C14.7486 12.3983 14.7739 12.3516 14.7869 12.3014C14.7998 12.2512 14.7999 12.1989 14.7872 12.1486C14.7395 11.9648 14.7152 11.7764 14.7149 11.5873C14.7156 10.929 14.9995 10.2979 15.5042 9.83224C16.0089 9.36662 16.6932 9.10454 17.4072 9.10349C17.7749 9.10252 18.1389 9.17187 18.4761 9.30714C18.8133 9.44242 19.1165 9.64069 19.3664 9.88944C19.4084 9.93072 19.4611 9.96145 19.5195 9.97872C19.578 9.99598 19.6402 9.99921 19.7004 9.9881C20.2134 9.89496 20.7123 9.74476 21.1861 9.54079C21.0629 10.2203 20.7115 10.8468 20.1804 11.3314Z" fill="#D5372A"/>
<path d="M21.9329 8.97616C21.9329 8.91733 21.916 8.85955 21.8839 8.80869C21.8518 8.75783 21.8058 8.7157 21.7503 8.68658C21.6949 8.65747 21.6321 8.6424 21.5683 8.64292C21.5045 8.64343 21.4419 8.65951 21.3871 8.68951C20.8783 8.96889 20.3257 9.17397 19.7488 9.29747C19.1185 8.74252 18.2794 8.43431 17.4079 8.43752C16.9345 8.43814 16.4664 8.52936 16.0333 8.70541C15.6001 8.88145 15.2113 9.13848 14.8914 9.46025C14.5716 9.78201 14.3276 10.1615 14.175 10.5747C14.0224 10.9879 13.9645 11.4258 14.0049 11.8607C11.8195 11.6465 9.81432 10.645 8.42586 9.07415C8.3888 9.03242 8.34131 8.99961 8.28747 8.97852C8.23362 8.95744 8.17504 8.94872 8.11674 8.95312C8.05844 8.95751 8.00216 8.97488 7.95275 9.00374C7.90333 9.0326 7.86225 9.07209 7.83303 9.11882C7.53309 9.60112 7.37531 10.1474 7.3754 10.7034C7.37451 11.3136 7.5659 11.9109 7.92629 12.4226L7.88291 12.4006C7.82627 12.375 7.76338 12.3634 7.70039 12.3669C7.63741 12.3704 7.57649 12.3889 7.5236 12.4206C7.4685 12.4537 7.42327 12.4989 7.39207 12.5523C7.36087 12.6056 7.3447 12.6653 7.34503 12.7259C7.34214 12.8046 7.3472 12.8839 7.36094 12.9613C7.39511 13.4014 7.52988 13.8299 7.7564 14.2185C7.98293 14.6072 8.29608 14.9473 8.67528 15.2165C8.62906 15.229 8.58603 15.2499 8.54871 15.2781C8.5114 15.3062 8.48055 15.3408 8.45799 15.3801C8.43542 15.4194 8.4216 15.4624 8.41732 15.5066C8.41304 15.5509 8.4184 15.5955 8.43308 15.6378C8.60009 16.1179 8.89022 16.5539 9.27885 16.9086C9.66749 17.2634 10.1432 17.5265 10.6656 17.6757C9.59885 18.2263 8.37027 18.4511 7.15634 18.3176C7.07499 18.3082 6.9926 18.3246 6.92269 18.3641C6.85278 18.4036 6.7995 18.4638 6.77159 18.5349C6.74368 18.606 6.74281 18.6837 6.7691 18.7553C6.7954 18.8269 6.84731 18.8881 6.91632 18.9289C8.36906 19.7914 10.0605 20.2499 11.7883 20.2495C13.7484 20.2695 15.6607 19.6916 17.2278 18.6059C18.7949 17.5202 19.929 15.9873 20.4537 14.2459C20.6988 13.4879 20.8239 12.7006 20.8253 11.9093C20.8253 11.8293 20.8253 11.746 20.8232 11.6613C21.1992 11.3088 21.4919 10.8883 21.6829 10.4262C21.8739 9.96421 21.959 9.47003 21.9329 8.97616ZM20.1804 11.3314C20.1211 11.3961 20.0908 11.4793 20.0959 11.564C20.1354 12.4067 20.022 13.2496 19.7604 14.0579C19.2938 15.6686 18.2547 17.0884 16.8093 18.0901C15.364 19.0918 13.596 19.6174 11.7883 19.5829C10.6851 19.5829 9.59302 19.3796 8.57623 18.9849C9.77122 18.8627 10.9048 18.433 11.8476 17.745C11.9063 17.7025 11.9492 17.6442 11.9706 17.5783C11.9919 17.5124 11.9906 17.442 11.9669 17.3768C11.9431 17.3116 11.8981 17.2547 11.8379 17.2141C11.7777 17.1734 11.7053 17.1509 11.6307 17.1497C11.168 17.1427 10.7151 17.0255 10.316 16.8094C9.91699 16.5933 9.58537 16.2857 9.35341 15.9164C9.66067 15.9171 9.96576 15.8784 10.26 15.8004C10.3376 15.7795 10.4053 15.7352 10.4523 15.6746C10.4993 15.614 10.523 15.5406 10.5195 15.4661C10.516 15.3917 10.4855 15.3205 10.433 15.2639C10.3805 15.2072 10.3089 15.1685 10.2296 15.1538C9.71214 15.0583 9.23674 14.824 8.86311 14.4803C8.48948 14.1366 8.23425 13.6989 8.12944 13.2219C8.43647 13.3137 8.75607 13.3649 9.07869 13.3739C9.15817 13.3793 9.23722 13.359 9.30216 13.3164C9.36711 13.2738 9.41387 13.2116 9.43438 13.1406C9.458 13.0716 9.45666 12.9975 9.43058 12.9293C9.4045 12.8611 9.35509 12.8026 9.28979 12.7626C8.92198 12.5369 8.62062 12.2305 8.4127 11.871C8.20477 11.5116 8.09677 11.1101 8.09835 10.7027C8.09835 10.4274 8.14679 10.1541 8.24295 9.89411C9.84577 11.49 12.0612 12.4456 14.417 12.5573C14.4733 12.5628 14.5302 12.5547 14.582 12.5338C14.6339 12.5129 14.6789 12.4798 14.7127 12.438C14.7486 12.3983 14.7739 12.3516 14.7869 12.3014C14.7998 12.2512 14.7999 12.1989 14.7872 12.1486C14.7395 11.9648 14.7152 11.7764 14.7149 11.5873C14.7156 10.929 14.9995 10.2979 15.5042 9.83224C16.0089 9.36662 16.6932 9.10454 17.4072 9.10349C17.7749 9.10252 18.1389 9.17187 18.4761 9.30714C18.8133 9.44242 19.1165 9.64069 19.3664 9.88944C19.4084 9.93072 19.4611 9.96145 19.5195 9.97872C19.578 9.99598 19.6402 9.99921 19.7004 9.9881C20.2134 9.89496 20.7123 9.74476 21.1861 9.54079C21.0629 10.2203 20.7115 10.8468 20.1804 11.3314Z" stroke="#D5372A" stroke-width="0.5" mask="url(#path-2-outside-1_12_502)"/>
</svg>
